HIERARCHY
ROOT Hips
{
	OFFSET 50.711899 -9.243999 51.665699
	CHANNELS 6 Xposition Yposition Zposition Xrotation Yrotation Zrotation
	JOINT spine
	{
		OFFSET 0.000000 -0.507025 8.817039
		CHANNELS 3 Xrotation Yrotation Zrotation
		JOINT spine1
		{
			OFFSET 0.000000 -0.000002 10.776600
			CHANNELS 3 Xrotation Yrotation Zrotation
			JOINT spine2
			{
				OFFSET 0.000000 -0.000002 10.325897
				CHANNELS 3 Xrotation Yrotation Zrotation
				JOINT Neck
				{
					OFFSET 0.000000 -1.263954 26.511002
					CHANNELS 3 Xrotation Yrotation Zrotation
					JOINT Head
					{
						OFFSET 0.000000 -0.000002 8.009659
						CHANNELS 3 Xrotation Yrotation Zrotation
						End Site
						{
							OFFSET 0.000000 6.393857 19.387894
						}
					}
				}
				JOINT RightShoulder
				{
					OFFSET -4.347950 0.605420 11.151199
					CHANNELS 3 Xrotation Yrotation Zrotation
					JOINT RightArm
					{
						OFFSET 0.000000 -0.000002 14.625801
						CHANNELS 3 Xrotation Yrotation Zrotation
						JOINT RightArmRoll
						{
							OFFSET 0.000000 -0.000002 7.383400
							CHANNELS 3 Xrotation Yrotation Zrotation
							JOINT RightForeArm
							{
								OFFSET 0.000000 -0.000003 21.505203
								CHANNELS 3 Xrotation Yrotation Zrotation
								JOINT RightForeArmRoll
								{
									OFFSET 0.000000 -0.000002 8.285324
									CHANNELS 3 Xrotation Yrotation Zrotation
									JOINT RightHand
									{
										OFFSET 0.000000 -0.000003 16.626801
										CHANNELS 3 Xrotation Yrotation Zrotation
										End Site
										{
											OFFSET 0.000000 0.000000 0.100006
										}
									}
								}
							}
						}
					}
				}
				JOINT LeftShoulder
				{
					OFFSET 4.347950 0.605420 11.151199
					CHANNELS 3 Xrotation Yrotation Zrotation
					JOINT LeftArm
					{
						OFFSET 0.000000 -0.000002 14.625801
						CHANNELS 3 Xrotation Yrotation Zrotation
						JOINT LeftArmRoll
						{
							OFFSET 0.000000 -0.000002 7.383400
							CHANNELS 3 Xrotation Yrotation Zrotation
							JOINT LeftForeArm
							{
								OFFSET 0.000000 -0.000003 21.505203
								CHANNELS 3 Xrotation Yrotation Zrotation
								JOINT LeftForeArmRoll
								{
									OFFSET 0.000000 -0.000002 8.285324
									CHANNELS 3 Xrotation Yrotation Zrotation
									JOINT LeftHand
									{
										OFFSET 0.000000 -0.000003 16.626801
										CHANNELS 3 Xrotation Yrotation Zrotation
										End Site
										{
											OFFSET 0.000000 0.000000 0.100006
										}
									}
								}
							}
						}
					}
				}
			}
		}
	}
	JOINT RightUpLeg
	{
		OFFSET -7.815102 1.202170 -1.433090
		CHANNELS 3 Xrotation Yrotation Zrotation
		JOINT RightUpLegRoll
		{
			OFFSET 0.000000 -0.000003 19.495899
			CHANNELS 3 Xrotation Yrotation Zrotation
			JOINT RightLeg
			{
				OFFSET 0.000000 0.000004 -24.142700
				CHANNELS 3 Xrotation Yrotation Zrotation
				JOINT RightLegRoll
				{
					OFFSET 0.000000 -0.000004 24.221703
					CHANNELS 3 Xrotation Yrotation Zrotation
					JOINT RightFoot
					{
						OFFSET 0.000000 -0.000003 20.160500
						CHANNELS 3 Xrotation Yrotation Zrotation
						JOINT RightToeBase
						{
							OFFSET 0.000000 -0.000003 16.853203
							CHANNELS 3 Xrotation Yrotation Zrotation
							End Site
							{
								OFFSET 0.007145 0.940779 8.161873
							}
						}
					}
				}
			}
		}
	}
	JOINT LeftUpLeg
	{
		OFFSET 7.815102 1.202170 -1.433090
		CHANNELS 3 Xrotation Yrotation Zrotation
		JOINT LeftUpLegRoll
		{
			OFFSET 0.000000 -0.000003 19.495998
			CHANNELS 3 Xrotation Yrotation Zrotation
			JOINT LeftLeg
			{
				OFFSET 0.000000 -0.000004 24.142601
				CHANNELS 3 Xrotation Yrotation Zrotation
				JOINT LeftLegRoll
				{
					OFFSET 0.000000 -0.000004 24.445602
					CHANNELS 3 Xrotation Yrotation Zrotation
					JOINT LeftFoot
					{
						OFFSET 0.000000 -0.000004 19.936607
						CHANNELS 3 Xrotation Yrotation Zrotation
						JOINT LeftToeBase
						{
							OFFSET 0.000000 -0.000002 16.853195
							CHANNELS 3 Xrotation Yrotation Zrotation
							End Site
							{
								OFFSET -0.032013 0.940779 8.161865
							}
						}
					}
				}
			}
		}
	}
}
MOTION
Frames: 5
Frame Time: 0.041667
51.361099 -39.174004 100.705994 -1.589333 -0.255064 1.913893 -1.893676 -0.221260 -0.097919 0.215097 -0.425986 -0.200122 1.860192 -0.428481 -0.195108 29.481965 3.927906 2.026569 -13.407173 1.254689 2.493209 -2.387235 -64.345190 -3.442126 -47.499219 -118.515448 -34.522003 -0.000002 0.000003 -0.000003 0.115363 -14.713474 -0.617535 0.000004 0.000001 -3.048380 -5.000217 -7.998774 0.000161 -12.023325 63.124615 14.404461 -39.744044 115.565476 34.278203 -0.000000 -0.000021 0.000003 3.674087 12.904520 -0.058479 -0.000000 -0.000007 3.000001 -5.000232 7.998722 -0.000150 -0.621320 -178.799067 -0.747123 -179.999991 0.000005 -1.084001 171.117330 -1.058154 -0.596368 -0.000004 0.000004 0.110031 69.436256 6.879102 2.151247 26.084836 -7.349466 0.949460 -1.890148 177.563321 2.802449 -0.000005 -0.000004 -1.075160 -9.624432 1.761223 0.560286 -0.000001 0.000003 -0.141262 69.522508 -6.880598 -2.113267 25.603492 7.355041 -0.220984 
51.346901 -39.132309 100.703003 -1.574685 -0.250849 1.920684 -1.888985 -0.222028 -0.097291 0.224476 -0.427996 -0.198247 1.869573 -0.430459 -0.193202 29.486873 3.935500 2.021438 -13.410554 1.250431 2.489284 -2.394996 -64.345669 -3.450973 -47.531724 -118.531636 -34.561853 -0.000003 0.000003 -0.000002 0.115365 -14.715875 -0.617714 0.000001 0.000002 -3.048381 -5.000220 -7.998774 0.000160 -11.999426 63.137907 14.377446 -39.790838 115.572210 34.331963 -0.000000 -0.000022 0.000003 3.684354 12.907668 -0.059779 -0.000001 -0.000007 3.000000 -5.000229 7.998720 -0.000150 -0.650896 -178.803083 -0.752407 -179.999991 0.000005 -1.084001 171.116415 -1.058151 -0.596385 -0.000004 0.000004 0.109735 69.423156 6.879112 2.151262 26.084130 -7.349466 0.948668 -1.931381 177.557393 2.801014 -0.000005 -0.000004 -1.075210 -9.644992 1.763265 0.560496 -0.000001 0.000002 -0.141222 69.525582 -6.880622 -2.113281 25.592886 7.355071 -0.205035 
51.337898 -39.137005 100.705002 -1.560455 -0.246771 1.927547 -1.884284 -0.222745 -0.096660 0.233883 -0.429900 -0.196323 1.878974 -0.432329 -0.191247 29.492053 3.942265 2.016278 -13.414436 1.246684 2.485228 -2.404698 -64.347711 -3.462208 -47.565079 -118.548247 -34.602138 -0.000000 0.000003 -0.000004 0.115362 -14.718472 -0.618032 0.000003 0.000002 -3.048380 -5.000222 -7.998776 0.000160 -11.974418 63.151294 14.349147 -39.836491 115.578617 34.384873 0.000001 -0.000021 0.000003 3.695589 12.911100 -0.061223 -0.000001 -0.000007 3.000000 -5.000229 7.998723 -0.000150 -0.679868 -178.808082 -0.757526 -179.999991 0.000005 -1.084001 171.115445 -1.059133 -0.596557 -0.000004 0.000004 0.109459 69.410343 6.879063 2.151448 26.083220 -7.349467 0.947896 -1.972037 177.551450 2.799613 -0.000005 -0.000004 -1.075280 -9.665501 1.765317 0.560660 -0.000000 0.000002 -0.141162 69.528758 -6.880613 -2.113183 25.581975 7.355100 -0.188528 
51.358101 -39.114208 100.706001 -1.546505 -0.242788 1.934445 -1.879574 -0.223424 -0.096027 0.243310 -0.431730 -0.194363 1.888405 -0.434126 -0.189257 29.497507 3.948443 2.011072 -13.418614 1.243287 2.481084 -2.415790 -64.350825 -3.475137 -47.601733 -118.563778 -34.645848 -0.000003 0.000003 -0.000002 0.115361 -14.721173 -0.618447 0.000003 0.000002 -3.048379 -5.000218 -7.998773 0.000160 -11.948569 63.164544 14.319873 -39.882721 115.584026 34.438691 0.000001 -0.000021 0.000003 3.707506 12.914724 -0.062764 -0.000002 -0.000007 3.000001 -5.000228 7.998723 -0.000150 -0.708414 -178.812085 -0.762548 -179.999991 0.000005 -1.084998 171.114489 -1.059131 -0.596575 -0.000004 0.000004 0.109196 69.397748 6.879017 2.151423 26.082308 -7.349471 0.947143 -2.012300 177.546505 2.798199 -0.000005 -0.000004 -1.075360 -9.685983 1.767378 0.560793 -0.000001 0.000002 -0.141089 69.531831 -6.880639 -2.113195 25.570768 7.355119 -0.171601 
51.349499 -39.098507 100.705994 -1.532703 -0.238859 1.941369 -1.874854 -0.224081 -0.095392 0.252747 -0.433517 -0.192382 1.897845 -0.435879 -0.187246 29.503053 3.954285 2.005846 -13.422905 1.240094 2.476892 -2.427676 -64.354534 -3.489035 -47.639996 -118.578805 -34.691186 0.000000 0.000003 -0.000003 0.115360 -14.723970 -0.618920 0.000006 0.000002 -3.048380 -5.000220 -7.998775 0.000161 -11.922264 63.177836 14.290067 -39.928381 115.589272 34.492069 -0.000000 -0.000022 0.000003 3.719820 12.918543 -0.064369 -0.000000 -0.000007 3.000001 -5.000230 7.998724 -0.000150 -0.736719 -178.816115 -0.767508 -179.999991 0.000005 -1.084998 171.113478 -1.060126 -0.596750 -0.000004 0.000004 0.108942 69.385167 6.879005 2.151502 26.081301 -7.349467 0.946393 -2.052325 177.540590 2.796847 -0.000005 -0.000004 -1.075450 -9.706435 1.769448 0.560908 -0.000001 0.000002 -0.141008 69.534898 -6.880625 -2.113203 25.559360 7.355146 -0.154443 
